<?xml version="1.0" encoding="utf-8"?>
<!-- Generator: Adobe Illustrator 16.0.0, SVG Export Plug-In . SVG Version: 6.00 Build 0)  -->
<!DOCTYPE svg PUBLIC "-//W3C//DTD SVG 1.1//EN" "http://www.w3.org/Graphics/SVG/1.1/DTD/svg11.dtd">
<svg version="1.1" id="图层_1" xmlns="http://www.w3.org/2000/svg" xmlns:xlink="http://www.w3.org/1999/xlink" x="0px" y="0px"
	 width="311.963px" height="105.322px" viewBox="0 0 311.963 105.322" enable-background="new 0 0 311.963 105.322"
	 xml:space="preserve">
<g>
	<polygon points="4.883,15.723 4.883,85.059 12.207,85.059 12.207,29.004 49.951,84.814 57.08,84.814 57.08,15.479 49.951,15.479 
		49.951,71.777 12.354,15.723 	"/>
	<path d="M283.887,85.059c6.934,0,12.858-2.458,17.773-7.373c4.915-4.915,7.373-10.84,7.373-17.773V14.941h-5.566v29.248
		c-5.046-6.282-11.572-9.424-19.58-9.424c-6.934,0-12.858,2.458-17.773,7.373c-4.916,4.916-7.373,10.84-7.373,17.773
		s2.458,12.858,7.373,17.773C271.028,82.601,276.953,85.059,283.887,85.059z M283.887,40.332c5.403,0,10.026,1.904,13.867,5.713
		c3.809,3.841,5.713,8.464,5.713,13.867c0,5.404-1.904,10.026-5.713,13.867c-3.841,3.809-8.464,5.713-13.867,5.713
		c-5.404,0-10.026-1.904-13.867-5.713c-3.809-3.841-5.713-8.463-5.713-13.867c0-5.403,1.904-10.026,5.713-13.867
		C273.86,42.236,278.483,40.332,283.887,40.332z M228.711,85.059c6.934,0,12.858-2.458,17.773-7.373
		c4.915-4.915,7.373-10.84,7.373-17.773V14.941h-5.566v29.248c-5.046-6.282-11.572-9.424-19.58-9.424
		c-6.934,0-12.858,2.458-17.773,7.373c-4.916,4.916-7.373,10.84-7.373,17.773s2.458,12.858,7.373,17.773
		C215.853,82.601,221.777,85.059,228.711,85.059z M228.711,40.332c5.403,0,10.026,1.904,13.867,5.713
		c3.809,3.841,5.713,8.464,5.713,13.867c0,5.404-1.904,10.026-5.713,13.867c-3.841,3.809-8.464,5.713-13.867,5.713
		c-5.404,0-10.026-1.904-13.867-5.713c-3.809-3.841-5.713-8.463-5.713-13.867c0-5.403,1.904-10.026,5.713-13.867
		C218.685,42.236,223.307,40.332,228.711,40.332z M198.682,59.912c0-6.934-2.441-12.842-7.324-17.725
		c-4.916-4.915-10.84-7.373-17.773-7.373s-12.858,2.458-17.773,7.373c-4.916,4.883-7.373,10.791-7.373,17.725
		s2.458,12.858,7.373,17.773c4.915,4.916,10.84,7.373,17.773,7.373c8.008,0,14.534-3.125,19.58-9.375v9.375h5.518V59.912z
		 M173.584,40.332c5.403,0,10.01,1.921,13.818,5.762c3.841,3.841,5.762,8.447,5.762,13.818c0,5.404-1.921,10.026-5.762,13.867
		c-3.809,3.841-8.415,5.762-13.818,5.762c-5.404,0-10.026-1.92-13.867-5.762c-3.809-3.841-5.713-8.463-5.713-13.867
		c0-5.371,1.904-9.977,5.713-13.818C163.558,42.253,168.18,40.332,173.584,40.332z M124.951,40.332v19.58
		c0,5.404,1.904,10.01,5.713,13.818c3.841,3.841,8.463,5.762,13.867,5.762v5.566c-6.934,0-12.858-2.458-17.773-7.373
		c-4.916-4.915-7.373-10.84-7.373-17.773V14.941h5.566v19.824h19.58v5.566H124.951z M89.355,85.059
		c6.934,0,12.858-2.458,17.773-7.373c4.915-4.915,7.373-10.84,7.373-17.773s-2.458-12.858-7.373-17.773
		c-4.916-4.915-10.84-7.373-17.773-7.373s-12.858,2.458-17.773,7.373c-4.916,4.916-7.373,10.84-7.373,17.773
		s2.458,12.858,7.373,17.773C76.497,82.601,82.422,85.059,89.355,85.059z M89.355,40.283c5.403,0,10.026,1.921,13.867,5.762
		c3.809,3.841,5.713,8.464,5.713,13.867c0,5.404-1.904,10.01-5.713,13.818c-3.841,3.841-8.464,5.762-13.867,5.762
		c-5.404,0-10.026-1.92-13.867-5.762c-3.809-3.809-5.713-8.415-5.713-13.818c0-5.403,1.904-10.026,5.713-13.867
		C79.329,42.204,83.952,40.283,89.355,40.283z"/>
</g>
</svg>
